<svg width="342.529" height="48.17" viewBox="0 0 342.529 48.17" xmlns="http://www.w3.org/2000/svg"><g id="svgGroup" stroke-linecap="round" fill-rule="evenodd" font-size="9pt" stroke="#000" stroke-width="0.25mm" fill="#000" style="stroke:#000;stroke-width:0.25mm;fill:#000"><path d="M 118.799 11.084 L 121.387 11.084 L 121.46 15.039 A 9.985 9.985 0 0 1 123.26 12.648 A 7.342 7.342 0 0 1 128.54 10.596 A 8.068 8.068 0 0 1 131.188 11.002 Q 134.073 12 135.132 15.454 A 10.447 10.447 0 0 1 136.451 13.458 A 8.067 8.067 0 0 1 138.342 11.816 Q 140.308 10.596 142.627 10.596 A 7.802 7.802 0 0 1 145.918 11.241 Q 149.801 13.03 149.927 19.775 L 149.927 37.5 L 147.217 37.5 L 147.217 19.946 Q 147.168 16.528 145.947 14.856 Q 144.727 13.184 141.943 13.184 A 5.658 5.658 0 0 0 137.832 14.991 A 7.123 7.123 0 0 0 137.695 15.137 A 7.567 7.567 0 0 0 135.87 18.834 A 9.832 9.832 0 0 0 135.718 19.922 L 135.718 37.5 L 132.983 37.5 L 132.983 20.02 A 15.037 15.037 0 0 0 132.882 18.21 Q 132.638 16.202 131.806 15.012 A 4.353 4.353 0 0 0 131.702 14.868 A 4.079 4.079 0 0 0 129.422 13.387 Q 128.724 13.203 127.885 13.185 A 8.497 8.497 0 0 0 127.71 13.184 A 5.403 5.403 0 0 0 123.865 14.722 A 7.29 7.29 0 0 0 122.464 16.589 Q 121.875 17.688 121.509 19.116 L 121.509 37.5 L 118.799 37.5 L 118.799 11.084 Z M 284.204 11.084 L 288.916 31.494 L 289.136 32.959 L 289.429 31.372 L 294.824 11.084 L 297.095 11.084 L 302.441 31.201 L 302.832 33.276 L 303.149 31.421 L 307.715 11.084 L 310.498 11.084 L 304.028 37.5 L 301.758 37.5 L 296.021 16.504 L 295.898 15.869 L 295.801 16.528 L 290.161 37.5 L 287.866 37.5 L 281.445 11.084 L 284.204 11.084 Z M 21.289 12.109 L 18.481 12.109 A 10.404 10.404 0 0 0 18.186 9.564 A 7.44 7.44 0 0 0 16.467 6.311 A 6.643 6.643 0 0 0 12.434 4.207 A 9.536 9.536 0 0 0 10.986 4.102 Q 7.617 4.102 5.676 5.92 A 6.054 6.054 0 0 0 3.748 10.166 A 8.189 8.189 0 0 0 3.735 10.62 A 6.428 6.428 0 0 0 4.086 12.783 A 5.568 5.568 0 0 0 5.566 15.015 Q 7.316 16.648 11.049 17.935 A 33.058 33.058 0 0 0 11.401 18.054 Q 15.405 19.385 17.456 20.813 A 10.348 10.348 0 0 1 19.238 22.366 A 8.258 8.258 0 0 1 20.483 24.17 A 8.851 8.851 0 0 1 21.299 26.701 A 11.992 11.992 0 0 1 21.46 28.711 A 10.034 10.034 0 0 1 20.995 31.835 A 8.227 8.227 0 0 1 18.64 35.437 A 9.602 9.602 0 0 1 14.156 37.687 A 13.921 13.921 0 0 1 11.182 37.988 A 13.21 13.21 0 0 1 7.317 37.436 A 11.866 11.866 0 0 1 5.481 36.707 Q 2.905 35.425 1.453 33.02 Q 0 30.615 0 27.344 L 2.783 27.344 A 10.022 10.022 0 0 0 3.076 29.838 A 6.981 6.981 0 0 0 5.054 33.252 Q 7.324 35.4 11.182 35.4 A 10.218 10.218 0 0 0 13.477 35.157 A 6.958 6.958 0 0 0 16.589 33.594 A 5.955 5.955 0 0 0 18.592 29.542 A 8.318 8.318 0 0 0 18.628 28.76 A 8.424 8.424 0 0 0 18.414 26.803 A 5.647 5.647 0 0 0 16.931 24.072 A 7.479 7.479 0 0 0 15.744 23.123 Q 14.39 22.228 12.191 21.376 A 37.984 37.984 0 0 0 10.596 20.801 Q 5.957 19.238 3.784 17.31 A 8.277 8.277 0 0 1 0.947 11.335 A 11.372 11.372 0 0 1 0.928 10.669 A 9.624 9.624 0 0 1 1.463 7.398 A 8.32 8.32 0 0 1 3.735 4.028 A 9.643 9.643 0 0 1 8.741 1.646 A 13.399 13.399 0 0 1 10.986 1.465 A 11.314 11.314 0 0 1 14.522 1.995 A 9.41 9.41 0 0 1 18.408 4.443 Q 21.289 7.422 21.289 12.109 Z M 75.269 11.084 L 81.836 33.032 L 88.135 11.084 L 91.04 11.084 L 81.738 41.724 L 81.226 43.188 A 11.915 11.915 0 0 1 80.198 45.309 Q 78.406 48.169 75.464 48.169 A 5.667 5.667 0 0 1 74.266 48.035 A 7.194 7.194 0 0 1 73.511 47.827 L 73.486 45.337 A 3.91 3.91 0 0 0 74.231 45.483 A 4.952 4.952 0 0 0 74.731 45.508 A 4.824 4.824 0 0 0 76.055 45.335 A 3.748 3.748 0 0 0 77.612 44.458 A 4.952 4.952 0 0 0 78.392 43.501 Q 79.002 42.546 79.461 41.087 A 15.71 15.71 0 0 0 79.468 41.064 L 80.591 37.329 L 72.29 11.084 L 75.269 11.084 Z M 194.702 25.928 L 194.702 23.071 Q 194.702 17.139 196.638 14.033 A 8.29 8.29 0 0 1 196.851 13.708 A 6.992 6.992 0 0 1 201.975 10.676 A 10.558 10.558 0 0 1 203.296 10.596 Q 207.293 10.596 209.493 13.795 A 10.054 10.054 0 0 1 210.083 14.771 L 210.23 11.084 L 212.744 11.084 L 212.744 38.257 Q 212.72 43.042 210.461 45.532 A 7.251 7.251 0 0 1 206.888 47.658 Q 205.705 47.977 204.291 48.017 A 14.494 14.494 0 0 1 203.882 48.022 A 9.56 9.56 0 0 1 200.671 47.45 A 11.828 11.828 0 0 1 199.5 46.96 Q 197.29 45.898 196.143 44.36 L 197.412 42.407 A 10.16 10.16 0 0 0 199.517 44.266 A 7.509 7.509 0 0 0 203.687 45.508 A 9.772 9.772 0 0 0 205.442 45.361 Q 206.398 45.186 207.142 44.803 A 4.387 4.387 0 0 0 208.484 43.75 A 5.532 5.532 0 0 0 209.474 41.98 Q 209.996 40.506 210.01 38.403 L 210.01 34.204 A 7.793 7.793 0 0 1 207.826 36.654 Q 206.277 37.758 204.174 37.948 A 9.993 9.993 0 0 1 203.272 37.988 Q 199.146 37.988 196.961 34.888 A 10.644 10.644 0 0 1 195.555 31.979 Q 195.113 30.597 194.899 28.917 A 26.384 26.384 0 0 1 194.702 25.928 Z M 219.019 25.928 L 219.019 23.071 Q 219.019 17.139 220.954 14.033 A 8.29 8.29 0 0 1 221.167 13.708 A 6.992 6.992 0 0 1 226.291 10.676 A 10.558 10.558 0 0 1 227.612 10.596 Q 231.609 10.596 233.81 13.795 A 10.054 10.054 0 0 1 234.399 14.771 L 234.546 11.084 L 237.061 11.084 L 237.061 38.257 Q 237.036 43.042 234.778 45.532 A 7.251 7.251 0 0 1 231.204 47.658 Q 230.022 47.977 228.607 48.017 A 14.494 14.494 0 0 1 228.198 48.022 A 9.56 9.56 0 0 1 224.987 47.45 A 11.828 11.828 0 0 1 223.816 46.96 Q 221.606 45.898 220.459 44.36 L 221.729 42.407 A 10.16 10.16 0 0 0 223.834 44.266 A 7.509 7.509 0 0 0 228.003 45.508 A 9.772 9.772 0 0 0 229.758 45.361 Q 230.715 45.186 231.458 44.803 A 4.387 4.387 0 0 0 232.8 43.75 A 5.532 5.532 0 0 0 233.791 41.98 Q 234.312 40.506 234.326 38.403 L 234.326 34.204 A 7.793 7.793 0 0 1 232.142 36.654 Q 230.593 37.758 228.491 37.948 A 9.993 9.993 0 0 1 227.588 37.988 Q 223.462 37.988 221.277 34.888 A 10.644 10.644 0 0 1 219.871 31.979 Q 219.429 30.597 219.215 28.917 A 26.384 26.384 0 0 1 219.019 25.928 Z M 50.732 11.084 L 53.32 11.084 L 53.394 15.283 A 10.478 10.478 0 0 1 55.013 13.042 A 9.109 9.109 0 0 1 56.384 11.865 A 7.055 7.055 0 0 1 60.523 10.596 A 7.282 7.282 0 0 1 63.797 11.284 Q 66.821 12.786 67.445 17.565 A 20.194 20.194 0 0 1 67.603 19.8 L 67.603 37.5 L 64.917 37.5 L 64.917 20.093 A 16.55 16.55 0 0 0 64.809 18.248 Q 64.581 16.341 63.875 15.174 A 4.434 4.434 0 0 0 63.672 14.868 A 3.91 3.91 0 0 0 61.344 13.35 Q 60.671 13.186 59.865 13.184 A 8.044 8.044 0 0 0 59.839 13.184 A 5.301 5.301 0 0 0 56.449 14.408 A 7.02 7.02 0 0 0 56.018 14.783 Q 54.372 16.334 53.496 18.999 A 14.791 14.791 0 0 0 53.442 19.165 L 53.442 37.5 L 50.732 37.5 L 50.732 11.084 Z M 188.062 37.5 L 184.985 27.563 L 171.655 27.563 L 168.628 37.5 L 165.723 37.5 L 177.051 1.953 L 179.639 1.953 L 190.967 37.5 L 188.062 37.5 Z M 44.043 37.5 L 41.162 37.5 A 8.928 8.928 0 0 1 40.962 36.622 Q 40.759 35.501 40.674 33.838 A 8.814 8.814 0 0 1 38.231 36.463 A 8.531 8.531 0 0 1 37.537 36.902 A 8.299 8.299 0 0 1 33.374 37.988 A 9.73 9.73 0 0 1 31.203 37.76 Q 29.302 37.325 28.052 36.06 Q 26.307 34.293 26.161 31.153 A 12.598 12.598 0 0 1 26.148 30.566 A 9.157 9.157 0 0 1 26.55 27.786 A 7.257 7.257 0 0 1 28.796 24.414 Q 31.445 22.144 36.108 22.119 L 40.649 22.119 L 40.649 18.433 A 8.993 8.993 0 0 0 40.538 16.966 Q 40.412 16.204 40.142 15.605 A 3.578 3.578 0 0 0 39.246 14.368 Q 37.842 13.135 35.132 13.135 A 7.073 7.073 0 0 0 33.238 13.377 A 5.421 5.421 0 0 0 31.006 14.6 A 4.832 4.832 0 0 0 29.399 18.133 A 6.481 6.481 0 0 0 29.395 18.384 L 26.685 18.359 A 7.178 7.178 0 0 1 28.903 13.068 A 9.067 9.067 0 0 1 29.126 12.854 A 8.424 8.424 0 0 1 34.214 10.643 A 11.215 11.215 0 0 1 35.254 10.596 Q 38.015 10.596 39.848 11.559 A 6.12 6.12 0 0 1 41.284 12.598 A 6.408 6.408 0 0 1 42.935 15.406 Q 43.235 16.407 43.31 17.609 A 13.244 13.244 0 0 1 43.335 18.433 L 43.335 31.396 A 34.153 34.153 0 0 0 43.391 33.426 Q 43.534 35.821 44.043 37.207 L 44.043 37.5 Z M 112.207 37.5 L 109.326 37.5 A 8.928 8.928 0 0 1 109.126 36.622 Q 108.923 35.501 108.838 33.838 A 8.814 8.814 0 0 1 106.395 36.463 A 8.531 8.531 0 0 1 105.701 36.902 A 8.299 8.299 0 0 1 101.538 37.988 A 9.73 9.73 0 0 1 99.367 37.76 Q 97.466 37.325 96.216 36.06 Q 94.471 34.293 94.325 31.153 A 12.598 12.598 0 0 1 94.312 30.566 A 9.157 9.157 0 0 1 94.714 27.786 A 7.257 7.257 0 0 1 96.961 24.414 Q 99.609 22.144 104.273 22.119 L 108.814 22.119 L 108.814 18.433 A 8.993 8.993 0 0 0 108.702 16.966 Q 108.576 16.204 108.306 15.605 A 3.578 3.578 0 0 0 107.41 14.368 Q 106.006 13.135 103.296 13.135 A 7.073 7.073 0 0 0 101.402 13.377 A 5.421 5.421 0 0 0 99.17 14.6 A 4.832 4.832 0 0 0 97.563 18.133 A 6.481 6.481 0 0 0 97.559 18.384 L 94.849 18.359 A 7.178 7.178 0 0 1 97.067 13.068 A 9.067 9.067 0 0 1 97.29 12.854 A 8.424 8.424 0 0 1 102.378 10.643 A 11.215 11.215 0 0 1 103.418 10.596 Q 106.179 10.596 108.012 11.559 A 6.12 6.12 0 0 1 109.448 12.598 A 6.408 6.408 0 0 1 111.1 15.406 Q 111.399 16.407 111.474 17.609 A 13.244 13.244 0 0 1 111.499 18.433 L 111.499 31.396 A 34.153 34.153 0 0 0 111.555 33.426 Q 111.698 35.821 112.207 37.207 L 112.207 37.5 Z M 261.133 37.5 L 258.252 37.5 A 8.928 8.928 0 0 1 258.052 36.622 Q 257.849 35.501 257.764 33.838 A 8.814 8.814 0 0 1 255.321 36.463 A 8.531 8.531 0 0 1 254.627 36.902 A 8.299 8.299 0 0 1 250.464 37.988 A 9.73 9.73 0 0 1 248.293 37.76 Q 246.391 37.325 245.142 36.06 Q 243.397 34.293 243.251 31.153 A 12.598 12.598 0 0 1 243.237 30.566 A 9.157 9.157 0 0 1 243.64 27.786 A 7.257 7.257 0 0 1 245.886 24.414 Q 248.535 22.144 253.198 22.119 L 257.739 22.119 L 257.739 18.433 A 8.993 8.993 0 0 0 257.628 16.966 Q 257.502 16.204 257.232 15.605 A 3.578 3.578 0 0 0 256.336 14.368 Q 254.932 13.135 252.222 13.135 A 7.073 7.073 0 0 0 250.328 13.377 A 5.421 5.421 0 0 0 248.096 14.6 A 4.832 4.832 0 0 0 246.489 18.133 A 6.481 6.481 0 0 0 246.484 18.384 L 243.774 18.359 A 7.178 7.178 0 0 1 245.992 13.068 A 9.067 9.067 0 0 1 246.216 12.854 A 8.424 8.424 0 0 1 251.304 10.643 A 11.215 11.215 0 0 1 252.344 10.596 Q 255.105 10.596 256.938 11.559 A 6.12 6.12 0 0 1 258.374 12.598 A 6.408 6.408 0 0 1 260.025 15.406 Q 260.325 16.407 260.4 17.609 A 13.244 13.244 0 0 1 260.425 18.433 L 260.425 31.396 A 34.153 34.153 0 0 0 260.481 33.426 Q 260.624 35.821 261.133 37.207 L 261.133 37.5 Z M 332.813 37.5 L 329.932 37.5 A 8.928 8.928 0 0 1 329.731 36.622 Q 329.528 35.501 329.443 33.838 A 8.814 8.814 0 0 1 327 36.463 A 8.531 8.531 0 0 1 326.306 36.902 A 8.299 8.299 0 0 1 322.144 37.988 A 9.73 9.73 0 0 1 319.973 37.76 Q 318.071 37.325 316.821 36.06 Q 315.077 34.293 314.93 31.153 A 12.598 12.598 0 0 1 314.917 30.566 A 9.157 9.157 0 0 1 315.319 27.786 A 7.257 7.257 0 0 1 317.566 24.414 Q 320.215 22.144 324.878 22.119 L 329.419 22.119 L 329.419 18.433 A 8.993 8.993 0 0 0 329.308 16.966 Q 329.182 16.204 328.911 15.605 A 3.578 3.578 0 0 0 328.015 14.368 Q 326.611 13.135 323.901 13.135 A 7.073 7.073 0 0 0 322.007 13.377 A 5.421 5.421 0 0 0 319.775 14.6 A 4.832 4.832 0 0 0 318.169 18.133 A 6.481 6.481 0 0 0 318.164 18.384 L 315.454 18.359 A 7.178 7.178 0 0 1 317.672 13.068 A 9.067 9.067 0 0 1 317.896 12.854 A 8.424 8.424 0 0 1 322.984 10.643 A 11.215 11.215 0 0 1 324.023 10.596 Q 326.785 10.596 328.617 11.559 A 6.12 6.12 0 0 1 330.054 12.598 A 6.408 6.408 0 0 1 331.705 15.406 Q 332.005 16.407 332.08 17.609 A 13.244 13.244 0 0 1 332.105 18.433 L 332.105 31.396 A 34.153 34.153 0 0 0 332.161 33.426 Q 332.304 35.821 332.813 37.207 L 332.813 37.5 Z M 342.529 0 L 342.529 37.5 L 339.795 37.5 L 339.795 0 L 342.529 0 Z M 278.223 10.913 L 278.174 13.623 A 13.133 13.133 0 0 0 277.421 13.512 Q 277.063 13.471 276.745 13.458 A 6.882 6.882 0 0 0 276.465 13.452 A 5.399 5.399 0 0 0 274.34 13.861 A 5.119 5.119 0 0 0 272.693 14.99 Q 271.303 16.391 270.653 18.784 A 13.222 13.222 0 0 0 270.532 19.263 L 270.532 37.5 L 267.822 37.5 L 267.822 11.084 L 270.483 11.084 L 270.532 15.039 A 9.498 9.498 0 0 1 271.781 12.904 A 5.842 5.842 0 0 1 276.587 10.596 A 5.848 5.848 0 0 1 277.18 10.624 Q 277.782 10.685 278.166 10.882 A 1.629 1.629 0 0 1 278.223 10.913 Z M 197.437 22.9 L 197.437 25.537 A 26.664 26.664 0 0 0 197.558 28.177 Q 197.822 30.825 198.664 32.466 A 6.405 6.405 0 0 0 198.975 33.008 A 5.032 5.032 0 0 0 202.634 35.316 A 7.852 7.852 0 0 0 203.809 35.4 A 7.11 7.11 0 0 0 206.524 34.907 Q 208.312 34.175 209.427 32.356 A 9.006 9.006 0 0 0 210.01 31.226 L 210.01 17.725 A 9.071 9.071 0 0 0 208.783 15.541 A 5.916 5.916 0 0 0 203.857 13.208 A 7.339 7.339 0 0 0 201.956 13.439 A 4.927 4.927 0 0 0 198.999 15.576 A 7.803 7.803 0 0 0 198.124 17.497 Q 197.453 19.638 197.437 22.9 Z M 221.753 22.9 L 221.753 25.537 A 26.664 26.664 0 0 0 221.874 28.177 Q 222.139 30.825 222.98 32.466 A 6.405 6.405 0 0 0 223.291 33.008 A 5.032 5.032 0 0 0 226.951 35.316 A 7.852 7.852 0 0 0 228.125 35.4 A 7.11 7.11 0 0 0 230.84 34.907 Q 232.628 34.175 233.743 32.356 A 9.006 9.006 0 0 0 234.326 31.226 L 234.326 17.725 A 9.071 9.071 0 0 0 233.099 15.541 A 5.916 5.916 0 0 0 228.174 13.208 A 7.339 7.339 0 0 0 226.273 13.439 A 4.927 4.927 0 0 0 223.315 15.576 A 7.803 7.803 0 0 0 222.441 17.497 Q 221.769 19.638 221.753 22.9 Z M 178.32 5.884 L 172.461 24.951 L 184.18 24.951 L 178.32 5.884 Z M 40.649 30.811 L 40.649 24.39 L 36.353 24.39 Q 33.952 24.421 32.318 25.102 A 5.85 5.85 0 0 0 30.762 26.038 A 5.239 5.239 0 0 0 28.904 29.767 A 7.318 7.318 0 0 0 28.882 30.347 A 7.559 7.559 0 0 0 29.113 32.306 Q 29.793 34.833 32.472 35.28 A 7.568 7.568 0 0 0 33.716 35.376 A 7.803 7.803 0 0 0 36.363 34.937 A 7.101 7.101 0 0 0 37.952 34.131 Q 39.795 32.886 40.649 30.811 Z M 108.814 30.811 L 108.814 24.39 L 104.517 24.39 Q 102.116 24.421 100.482 25.102 A 5.85 5.85 0 0 0 98.926 26.038 A 5.239 5.239 0 0 0 97.068 29.767 A 7.318 7.318 0 0 0 97.046 30.347 A 7.559 7.559 0 0 0 97.277 32.306 Q 97.957 34.833 100.636 35.28 A 7.568 7.568 0 0 0 101.88 35.376 A 7.803 7.803 0 0 0 104.527 34.937 A 7.101 7.101 0 0 0 106.116 34.131 Q 107.959 32.886 108.814 30.811 Z M 257.739 30.811 L 257.739 24.39 L 253.442 24.39 Q 251.042 24.421 249.407 25.102 A 5.85 5.85 0 0 0 247.852 26.038 A 5.239 5.239 0 0 0 245.994 29.767 A 7.318 7.318 0 0 0 245.972 30.347 A 7.559 7.559 0 0 0 246.203 32.306 Q 246.883 34.833 249.562 35.28 A 7.568 7.568 0 0 0 250.806 35.376 A 7.803 7.803 0 0 0 253.453 34.937 A 7.101 7.101 0 0 0 255.042 34.131 Q 256.885 32.886 257.739 30.811 Z M 329.419 30.811 L 329.419 24.39 L 325.122 24.39 Q 322.721 24.421 321.087 25.102 A 5.85 5.85 0 0 0 319.531 26.038 A 5.239 5.239 0 0 0 317.674 29.767 A 7.318 7.318 0 0 0 317.651 30.347 A 7.559 7.559 0 0 0 317.883 32.306 Q 318.563 34.833 321.242 35.28 A 7.568 7.568 0 0 0 322.485 35.376 A 7.803 7.803 0 0 0 325.133 34.937 A 7.101 7.101 0 0 0 326.721 34.131 Q 328.565 32.886 329.419 30.811 Z" vector-effect="non-scaling-stroke"/></g></svg>